<mxfile host="app.diagrams.net" agent="Mozilla/5.0 (Windows NT 10.0; Win64; x64) AppleWebKit/537.36 (KHTML, like Gecko) Chrome/139.0.0.0 Safari/537.36" version="28.2.3">
  <diagram name="Trang-1" id="or1B10BF5Y0ciXk6DVuH">
    <mxGraphModel dx="3158" dy="864" grid="1" gridSize="10" guides="1" tooltips="1" connect="1" arrows="1" fold="1" page="1" pageScale="1" pageWidth="827" pageHeight="1169" background="light-dark(#f4efef, #121212)" math="0" shadow="0">
      <root>
        <mxCell id="0" />
        <mxCell id="1" parent="0" />
        <mxCell id="JXdQL7iqUqn0IxRsVN6d-1" value="Bắt đầu" style="ellipse;whiteSpace=wrap;html=1;fontFamily=Times New Roman;align=center;fillColor=#FF00FF;strokeColor=#FF99CC;" vertex="1" parent="1">
          <mxGeometry x="-785" y="50" width="80" height="50" as="geometry" />
        </mxCell>
        <mxCell id="JXdQL7iqUqn0IxRsVN6d-2" value="&lt;div style=&quot;line-height: 110%;&quot;&gt;&lt;font style=&quot;font-size: 11px;&quot;&gt;Khách truy cập vào webside,&lt;/font&gt;&lt;/div&gt;&lt;div style=&quot;line-height: 110%;&quot;&gt;&lt;font style=&quot;font-size: 11px;&quot;&gt;&amp;nbsp;ứng dụng đặt vé&lt;/font&gt;&lt;/div&gt;" style="shape=parallelogram;perimeter=parallelogramPerimeter;whiteSpace=wrap;html=1;fixedSize=1;size=30;fillColor=#dae8fc;strokeColor=#6c8ebf;" vertex="1" parent="1">
          <mxGeometry x="-840" y="120" width="190" height="60" as="geometry" />
        </mxCell>
        <mxCell id="JXdQL7iqUqn0IxRsVN6d-3" value="" style="endArrow=classic;html=1;rounded=0;exitX=0.5;exitY=1;exitDx=0;exitDy=0;entryX=0.5;entryY=0;entryDx=0;entryDy=0;" edge="1" parent="1" source="JXdQL7iqUqn0IxRsVN6d-1" target="JXdQL7iqUqn0IxRsVN6d-2">
          <mxGeometry width="50" height="50" relative="1" as="geometry">
            <mxPoint x="-440" y="350" as="sourcePoint" />
            <mxPoint x="-390" y="300" as="targetPoint" />
            <Array as="points" />
          </mxGeometry>
        </mxCell>
        <mxCell id="JXdQL7iqUqn0IxRsVN6d-4" value="&lt;font style=&quot;font-size: 10px;&quot;&gt;Khách hàng nhập thông tin chuyến bay&lt;/font&gt;" style="shape=parallelogram;perimeter=parallelogramPerimeter;whiteSpace=wrap;html=1;fixedSize=1;fillColor=#dae8fc;strokeColor=#6c8ebf;" vertex="1" parent="1">
          <mxGeometry x="-840" y="220" width="150" height="70" as="geometry" />
        </mxCell>
        <mxCell id="JXdQL7iqUqn0IxRsVN6d-5" value="" style="endArrow=classic;html=1;rounded=0;exitX=0.405;exitY=1.033;exitDx=0;exitDy=0;exitPerimeter=0;entryX=0.5;entryY=0;entryDx=0;entryDy=0;" edge="1" parent="1" source="JXdQL7iqUqn0IxRsVN6d-2" target="JXdQL7iqUqn0IxRsVN6d-4">
          <mxGeometry width="50" height="50" relative="1" as="geometry">
            <mxPoint x="-440" y="350" as="sourcePoint" />
            <mxPoint x="-390" y="300" as="targetPoint" />
          </mxGeometry>
        </mxCell>
        <mxCell id="JXdQL7iqUqn0IxRsVN6d-6" value="Hệ thống tìm chuyến bay phù hợp" style="rounded=0;whiteSpace=wrap;html=1;fillColor=#dae8fc;strokeColor=#6c8ebf;" vertex="1" parent="1">
          <mxGeometry x="-830" y="320" width="120" height="60" as="geometry" />
        </mxCell>
        <mxCell id="JXdQL7iqUqn0IxRsVN6d-7" value="" style="endArrow=classic;html=1;rounded=0;exitX=0.427;exitY=0.986;exitDx=0;exitDy=0;exitPerimeter=0;entryX=0.5;entryY=0;entryDx=0;entryDy=0;" edge="1" parent="1" source="JXdQL7iqUqn0IxRsVN6d-4" target="JXdQL7iqUqn0IxRsVN6d-6">
          <mxGeometry width="50" height="50" relative="1" as="geometry">
            <mxPoint x="-440" y="350" as="sourcePoint" />
            <mxPoint x="-390" y="300" as="targetPoint" />
          </mxGeometry>
        </mxCell>
        <mxCell id="JXdQL7iqUqn0IxRsVN6d-8" value="&lt;font&gt;Có chuyến bay phù hợp không&lt;/font&gt;" style="rhombus;whiteSpace=wrap;html=1;fillColor=#ffe6cc;strokeColor=#d79b00;" vertex="1" parent="1">
          <mxGeometry x="-750" y="420" width="100" height="90" as="geometry" />
        </mxCell>
        <mxCell id="JXdQL7iqUqn0IxRsVN6d-10" value="" style="endArrow=classic;html=1;rounded=0;exitX=0.5;exitY=1;exitDx=0;exitDy=0;entryX=0.5;entryY=0;entryDx=0;entryDy=0;" edge="1" parent="1" source="JXdQL7iqUqn0IxRsVN6d-6" target="JXdQL7iqUqn0IxRsVN6d-8">
          <mxGeometry width="50" height="50" relative="1" as="geometry">
            <mxPoint x="-440" y="350" as="sourcePoint" />
            <mxPoint x="-390" y="300" as="targetPoint" />
            <Array as="points" />
          </mxGeometry>
        </mxCell>
        <mxCell id="JXdQL7iqUqn0IxRsVN6d-11" value="có chuyến bay" style="rhombus;whiteSpace=wrap;html=1;fillColor=#dae8fc;strokeColor=#6c8ebf;" vertex="1" parent="1">
          <mxGeometry x="-640" y="470" width="80" height="80" as="geometry" />
        </mxCell>
        <mxCell id="JXdQL7iqUqn0IxRsVN6d-12" value="không có chuyến bay" style="rhombus;whiteSpace=wrap;html=1;fillColor=#f8cecc;strokeColor=#b85450;" vertex="1" parent="1">
          <mxGeometry x="-640" y="310" width="80" height="80" as="geometry" />
        </mxCell>
        <mxCell id="JXdQL7iqUqn0IxRsVN6d-13" value="Hiển thị danh sách" style="rounded=0;whiteSpace=wrap;html=1;fillColor=#fff2cc;strokeColor=#d6b656;" vertex="1" parent="1">
          <mxGeometry x="-540" y="410" width="120" height="60" as="geometry" />
        </mxCell>
        <mxCell id="JXdQL7iqUqn0IxRsVN6d-14" value="" style="endArrow=classic;html=1;rounded=0;exitX=0.83;exitY=0.267;exitDx=0;exitDy=0;exitPerimeter=0;entryX=0;entryY=1;entryDx=0;entryDy=0;" edge="1" parent="1" source="JXdQL7iqUqn0IxRsVN6d-8" target="JXdQL7iqUqn0IxRsVN6d-12">
          <mxGeometry width="50" height="50" relative="1" as="geometry">
            <mxPoint x="-440" y="350" as="sourcePoint" />
            <mxPoint x="-390" y="300" as="targetPoint" />
          </mxGeometry>
        </mxCell>
        <mxCell id="JXdQL7iqUqn0IxRsVN6d-15" value="" style="endArrow=classic;html=1;rounded=0;exitX=1;exitY=1;exitDx=0;exitDy=0;entryX=0;entryY=0;entryDx=0;entryDy=0;" edge="1" parent="1" source="JXdQL7iqUqn0IxRsVN6d-8" target="JXdQL7iqUqn0IxRsVN6d-11">
          <mxGeometry width="50" height="50" relative="1" as="geometry">
            <mxPoint x="-670" y="520" as="sourcePoint" />
            <mxPoint x="-620" y="470" as="targetPoint" />
          </mxGeometry>
        </mxCell>
        <mxCell id="JXdQL7iqUqn0IxRsVN6d-17" value="" style="endArrow=classic;html=1;rounded=0;exitX=0.5;exitY=0;exitDx=0;exitDy=0;entryX=1;entryY=0.5;entryDx=0;entryDy=0;" edge="1" parent="1" source="JXdQL7iqUqn0IxRsVN6d-12" target="JXdQL7iqUqn0IxRsVN6d-4">
          <mxGeometry width="50" height="50" relative="1" as="geometry">
            <mxPoint x="-680" y="380" as="sourcePoint" />
            <mxPoint x="-630" y="330" as="targetPoint" />
            <Array as="points" />
          </mxGeometry>
        </mxCell>
        <mxCell id="JXdQL7iqUqn0IxRsVN6d-18" value="" style="endArrow=classic;html=1;rounded=0;entryX=0;entryY=0.5;entryDx=0;entryDy=0;" edge="1" parent="1" source="JXdQL7iqUqn0IxRsVN6d-11" target="JXdQL7iqUqn0IxRsVN6d-13">
          <mxGeometry width="50" height="50" relative="1" as="geometry">
            <mxPoint x="-440" y="350" as="sourcePoint" />
            <mxPoint x="-390" y="300" as="targetPoint" />
          </mxGeometry>
        </mxCell>
        <mxCell id="JXdQL7iqUqn0IxRsVN6d-19" value="Khách hàng chọn chuyến bay" style="shape=parallelogram;perimeter=parallelogramPerimeter;whiteSpace=wrap;html=1;fixedSize=1;fillColor=#dae8fc;strokeColor=#6c8ebf;" vertex="1" parent="1">
          <mxGeometry x="-400" y="450" width="120" height="60" as="geometry" />
        </mxCell>
        <mxCell id="JXdQL7iqUqn0IxRsVN6d-20" value="" style="endArrow=classic;html=1;rounded=0;entryX=0;entryY=0.5;entryDx=0;entryDy=0;" edge="1" parent="1" source="JXdQL7iqUqn0IxRsVN6d-13" target="JXdQL7iqUqn0IxRsVN6d-19">
          <mxGeometry width="50" height="50" relative="1" as="geometry">
            <mxPoint x="-420" y="490" as="sourcePoint" />
            <mxPoint x="-349.28932188134524" y="440" as="targetPoint" />
          </mxGeometry>
        </mxCell>
        <mxCell id="JXdQL7iqUqn0IxRsVN6d-21" value="Nhập thông tin cá nhân và phương thức thanh toán" style="shape=parallelogram;perimeter=parallelogramPerimeter;whiteSpace=wrap;html=1;fixedSize=1;fillColor=#dae8fc;strokeColor=#6c8ebf;" vertex="1" parent="1">
          <mxGeometry x="-220" y="435" width="120" height="60" as="geometry" />
        </mxCell>
        <mxCell id="JXdQL7iqUqn0IxRsVN6d-23" value="" style="endArrow=classic;html=1;rounded=0;exitX=1;exitY=0.5;exitDx=0;exitDy=0;entryX=0;entryY=0.5;entryDx=0;entryDy=0;" edge="1" parent="1" source="JXdQL7iqUqn0IxRsVN6d-19" target="JXdQL7iqUqn0IxRsVN6d-21">
          <mxGeometry width="50" height="50" relative="1" as="geometry">
            <mxPoint x="-250" y="460" as="sourcePoint" />
            <mxPoint x="-200" y="410" as="targetPoint" />
          </mxGeometry>
        </mxCell>
        <mxCell id="JXdQL7iqUqn0IxRsVN6d-24" value="Hệ thống xử lí thanh toán" style="rounded=0;whiteSpace=wrap;html=1;fillColor=#fff2cc;strokeColor=#d6b656;" vertex="1" parent="1">
          <mxGeometry x="-70" y="450" width="120" height="60" as="geometry" />
        </mxCell>
        <mxCell id="JXdQL7iqUqn0IxRsVN6d-25" value="" style="endArrow=classic;html=1;rounded=0;entryX=0.017;entryY=0.4;entryDx=0;entryDy=0;entryPerimeter=0;exitX=1;exitY=0.5;exitDx=0;exitDy=0;" edge="1" parent="1" source="JXdQL7iqUqn0IxRsVN6d-21" target="JXdQL7iqUqn0IxRsVN6d-24">
          <mxGeometry width="50" height="50" relative="1" as="geometry">
            <mxPoint x="-100" y="450" as="sourcePoint" />
            <mxPoint x="-50" y="400" as="targetPoint" />
          </mxGeometry>
        </mxCell>
        <mxCell id="JXdQL7iqUqn0IxRsVN6d-27" value="Thanh toán" style="rhombus;whiteSpace=wrap;html=1;fillColor=#e1d5e7;strokeColor=#9673a6;" vertex="1" parent="1">
          <mxGeometry x="90" y="435" width="80" height="80" as="geometry" />
        </mxCell>
        <mxCell id="JXdQL7iqUqn0IxRsVN6d-28" value="" style="endArrow=classic;html=1;rounded=0;exitX=1.017;exitY=0.4;exitDx=0;exitDy=0;exitPerimeter=0;" edge="1" parent="1" source="JXdQL7iqUqn0IxRsVN6d-24" target="JXdQL7iqUqn0IxRsVN6d-27">
          <mxGeometry width="50" height="50" relative="1" as="geometry">
            <mxPoint x="50" y="420" as="sourcePoint" />
            <mxPoint x="100" y="370" as="targetPoint" />
          </mxGeometry>
        </mxCell>
        <mxCell id="JXdQL7iqUqn0IxRsVN6d-37" style="edgeStyle=orthogonalEdgeStyle;rounded=0;orthogonalLoop=1;jettySize=auto;html=1;entryX=0;entryY=0.5;entryDx=0;entryDy=0;" edge="1" parent="1" source="JXdQL7iqUqn0IxRsVN6d-29" target="JXdQL7iqUqn0IxRsVN6d-35">
          <mxGeometry relative="1" as="geometry" />
        </mxCell>
        <mxCell id="JXdQL7iqUqn0IxRsVN6d-29" value="Thành công" style="shape=parallelogram;perimeter=parallelogramPerimeter;whiteSpace=wrap;html=1;fixedSize=1;fillColor=#fff2cc;strokeColor=#d6b656;" vertex="1" parent="1">
          <mxGeometry x="200" y="490" width="120" height="60" as="geometry" />
        </mxCell>
        <mxCell id="JXdQL7iqUqn0IxRsVN6d-39" style="edgeStyle=orthogonalEdgeStyle;rounded=0;orthogonalLoop=1;jettySize=auto;html=1;entryX=0.5;entryY=1;entryDx=0;entryDy=0;" edge="1" parent="1" source="JXdQL7iqUqn0IxRsVN6d-30" target="JXdQL7iqUqn0IxRsVN6d-38">
          <mxGeometry relative="1" as="geometry" />
        </mxCell>
        <mxCell id="JXdQL7iqUqn0IxRsVN6d-30" value="Không thành công" style="shape=parallelogram;perimeter=parallelogramPerimeter;whiteSpace=wrap;html=1;fixedSize=1;fillColor=#f8cecc;strokeColor=#b85450;" vertex="1" parent="1">
          <mxGeometry x="80" y="330" width="120" height="60" as="geometry" />
        </mxCell>
        <mxCell id="JXdQL7iqUqn0IxRsVN6d-31" value="" style="endArrow=classic;html=1;rounded=0;exitX=1;exitY=1;exitDx=0;exitDy=0;entryX=0;entryY=0.5;entryDx=0;entryDy=0;" edge="1" parent="1" source="JXdQL7iqUqn0IxRsVN6d-27" target="JXdQL7iqUqn0IxRsVN6d-29">
          <mxGeometry width="50" height="50" relative="1" as="geometry">
            <mxPoint x="140" y="550" as="sourcePoint" />
            <mxPoint x="190" y="500" as="targetPoint" />
          </mxGeometry>
        </mxCell>
        <mxCell id="JXdQL7iqUqn0IxRsVN6d-34" value="" style="endArrow=classic;html=1;rounded=0;exitX=0.5;exitY=0;exitDx=0;exitDy=0;entryX=0.4;entryY=1.067;entryDx=0;entryDy=0;entryPerimeter=0;" edge="1" parent="1" source="JXdQL7iqUqn0IxRsVN6d-27" target="JXdQL7iqUqn0IxRsVN6d-30">
          <mxGeometry width="50" height="50" relative="1" as="geometry">
            <mxPoint x="130" y="430" as="sourcePoint" />
            <mxPoint x="120" y="380" as="targetPoint" />
          </mxGeometry>
        </mxCell>
        <mxCell id="JXdQL7iqUqn0IxRsVN6d-35" value="Kết thúc" style="ellipse;whiteSpace=wrap;html=1;fillColor=#FF00FF;strokeColor=#FF0080;" vertex="1" parent="1">
          <mxGeometry x="360" y="495" width="90" height="60" as="geometry" />
        </mxCell>
        <mxCell id="JXdQL7iqUqn0IxRsVN6d-40" style="edgeStyle=orthogonalEdgeStyle;rounded=0;orthogonalLoop=1;jettySize=auto;html=1;entryX=0.5;entryY=0;entryDx=0;entryDy=0;" edge="1" parent="1" source="JXdQL7iqUqn0IxRsVN6d-38" target="JXdQL7iqUqn0IxRsVN6d-21">
          <mxGeometry relative="1" as="geometry" />
        </mxCell>
        <mxCell id="JXdQL7iqUqn0IxRsVN6d-38" value="Thông báo lỗi yêu cầu nhập lại" style="rounded=0;whiteSpace=wrap;html=1;fillColor=#dae8fc;strokeColor=#6c8ebf;" vertex="1" parent="1">
          <mxGeometry x="-60" y="290" width="120" height="60" as="geometry" />
        </mxCell>
      </root>
    </mxGraphModel>
  </diagram>
</mxfile>
